<svg xmlns="http://www.w3.org/2000/svg" viewBox="0 0 172 172" xmlns:v="https://vecta.io/nano"><path d="M19.397 165.55c1.131-26.273 22.855-47.3 49.403-47.3h34.4c26.548 0 48.276 21.027 49.403 47.3z" fill="#ccc"/><path d="M103.2 120.4c24.635 0 44.926 18.924 47.107 43H21.694c2.18-24.076 22.472-43 47.107-43h34.4m0-4.3H68.8c-28.496 0-51.6 23.104-51.6 51.6h0 137.6 0c0-28.496-23.104-51.6-51.6-51.6z" fill="#95a5a6"/><path d="M86 131.15c-13.842 0-18.529-9.034-19.35-10.905V96.75h38.7v23.495c-.808 1.849-5.491 10.905-19.35 10.905z" fill="#fff"/><path d="M103.2 98.9v20.876C102.164 121.875 97.773 129 86 129c-11.739 0-16.151-7.125-17.2-9.232V98.9h34.4m4.3-4.3h-43v26.067S69.084 133.3 86 133.3s21.5-12.633 21.5-12.633V94.6z" fill="#95a5a6"/><path d="M116.715 82.62c-5.59 0-10.131-4.549-10.131-10.135a10.15 10.15 0 0 1 10.131-10.135c8.441 0 10.135 2.313 10.135 6.042 0 6.08-5.01 14.229-10.135 14.229zm-61.43 0c-5.126 0-10.135-8.148-10.135-14.233 0-3.728 1.699-6.041 10.135-6.041 5.59 0 10.131 4.545 10.131 10.135S60.875 82.62 55.285 82.62z" fill="#ecf0f1"/><path d="M116.715 64.5c7.985 0 7.985 2.068 7.985 3.891 0 5.306-4.476 12.083-7.985 12.083-4.403 0-7.985-3.582-7.985-7.985s3.582-7.989 7.985-7.989m-61.43 0c4.403 0 7.985 3.582 7.985 7.985s-3.582 7.985-7.985 7.985c-3.509 0-7.985-6.772-7.985-12.083 0-1.819 0-3.887 7.985-3.887m61.43-4.3c-6.785 0-12.285 5.5-12.285 12.285s5.5 12.285 12.285 12.285S129 75.173 129 68.387s-5.5-8.187-12.285-8.187zm-61.43 0C48.5 60.2 43 61.606 43 68.392s5.5 16.383 12.285 16.383 12.285-5.5 12.285-12.285A12.29 12.29 0 0 0 55.285 60.2z" fill="#95a5a6"/><path d="M86 113.95c-2.597 0-5.04-.937-7.061-2.709l-.391-.344-.499-.129A32.19 32.19 0 0 1 53.75 79.55V39.569c0-7.856 6.39-14.246 14.242-14.246h36.013c7.852 0 14.246 6.39 14.246 14.246V79.55a32.19 32.19 0 0 1-24.299 31.218l-.499.129-.391.344c-2.021 1.772-4.463 2.709-7.061 2.709z" fill="#fff"/><path d="M104.004 27.473c6.669 0 12.096 5.427 12.096 12.096V79.55c0 13.764-9.327 25.744-22.683 29.137l-1.002.254-.778.684c-1.131.993-3.023 2.176-5.637 2.176s-4.506-1.183-5.637-2.176l-.778-.684-1.002-.254C65.227 105.294 55.9 93.314 55.9 79.55V39.569c0-6.669 5.427-12.096 12.096-12.096h36.008m0-4.3H67.992c-9.052 0-16.392 7.34-16.392 16.396V79.55c0 16.069 11.034 29.524 25.925 33.304 2.27 1.995 5.216 3.246 8.475 3.246s6.205-1.251 8.475-3.246c14.891-3.78 25.925-17.234 25.925-33.303V39.569a16.4 16.4 0 0 0-16.396-16.396z" fill="#95a5a6"/><path d="M118.25 75.25V60.2c0-15.635-13.042-24.003-13.601-24.351l-1.711-1.075-1.183 1.647c-.365.507-9.112 12.414-28.01 12.414-4.945 0-19.995 0-19.995 15.665v10.75h-.77c-1.875-4.223-7.83-18.628-7.83-30.908 0-22.665 15.553-37.892 38.7-37.892 16.508 0 21.466 11.116 21.668 11.589l.563 1.303 1.419.009c7.185 0 19.35 4.997 19.35 23.715 0 11.279-6.05 27.49-7.903 32.185z" fill="#ccc"/><path d="M83.85 8.6c14.977 0 19.513 9.877 19.681 10.256l1.105 2.645h2.864c7.933 0 17.2 5.646 17.2 21.564 0 6.605-2.18 15.041-4.3 21.685V60.2c0-16.809-14.009-25.796-14.607-26.174l-3.444-2.163-2.352 3.32c-.082.116-8.346 11.498-26.251 11.498C59.052 46.685 51.6 52.679 51.6 64.5v1.35c-2.111-6.115-4.3-14.211-4.3-21.513C47.3 22.962 61.989 8.6 83.85 8.6m0-4.3C58.828 4.3 43 21.418 43 44.337 43 59.521 51.6 77.4 51.6 77.4h4.3V64.5c0-11.472 8.703-13.515 17.845-13.515 20.339 0 29.765-13.317 29.765-13.317S116.1 45.576 116.1 60.2v17.2h4.3s8.6-20.502 8.6-34.335c0-19.423-12.371-25.864-21.5-25.864 0 0-5.388-12.9-23.65-12.9z" fill="#95a5a6"/></svg>